<mxfile host="app.diagrams.net" agent="Mozilla/5.0 (Macintosh; Intel Mac OS X 10_15_7) AppleWebKit/537.36 (KHTML, like Gecko) Chrome/134.0.0.0 Safari/537.36" version="26.0.14">
  <diagram name="Page-1" id="L7ZHhaByEdhgNtdKoAVh">
    <mxGraphModel dx="880" dy="957" grid="0" gridSize="10" guides="1" tooltips="1" connect="1" arrows="1" fold="1" page="0" pageScale="1" pageWidth="850" pageHeight="1100" math="0" shadow="0">
      <root>
        <mxCell id="0" />
        <mxCell id="1" parent="0" />
        <mxCell id="wH24ThZLNfN2DSpacKjt-13" style="edgeStyle=none;curved=1;rounded=0;orthogonalLoop=1;jettySize=auto;html=1;exitX=0.5;exitY=1;exitDx=0;exitDy=0;entryX=0.5;entryY=0;entryDx=0;entryDy=0;fontSize=12;startSize=8;endSize=8;" edge="1" parent="1" source="wH24ThZLNfN2DSpacKjt-1" target="wH24ThZLNfN2DSpacKjt-8">
          <mxGeometry relative="1" as="geometry" />
        </mxCell>
        <mxCell id="wH24ThZLNfN2DSpacKjt-14" style="edgeStyle=none;curved=1;rounded=0;orthogonalLoop=1;jettySize=auto;html=1;exitX=0.5;exitY=1;exitDx=0;exitDy=0;entryX=0.5;entryY=0;entryDx=0;entryDy=0;fontSize=12;startSize=8;endSize=8;" edge="1" parent="1" source="wH24ThZLNfN2DSpacKjt-1" target="wH24ThZLNfN2DSpacKjt-9">
          <mxGeometry relative="1" as="geometry" />
        </mxCell>
        <mxCell id="wH24ThZLNfN2DSpacKjt-1" value="&lt;div&gt;&lt;font face=&quot;Times New Roman&quot;&gt;Persoalan&lt;/font&gt;&lt;/div&gt;" style="rounded=1;whiteSpace=wrap;html=1;" vertex="1" parent="1">
          <mxGeometry x="163" y="-2" width="120" height="60" as="geometry" />
        </mxCell>
        <mxCell id="wH24ThZLNfN2DSpacKjt-16" style="edgeStyle=none;curved=1;rounded=0;orthogonalLoop=1;jettySize=auto;html=1;exitX=0.5;exitY=1;exitDx=0;exitDy=0;entryX=0.5;entryY=0;entryDx=0;entryDy=0;fontSize=12;startSize=8;endSize=8;" edge="1" parent="1" source="wH24ThZLNfN2DSpacKjt-8" target="wH24ThZLNfN2DSpacKjt-10">
          <mxGeometry relative="1" as="geometry" />
        </mxCell>
        <mxCell id="wH24ThZLNfN2DSpacKjt-8" value="&lt;div&gt;&lt;font face=&quot;Times New Roman&quot;&gt;Sub-Persoalan 1&lt;/font&gt;&lt;/div&gt;" style="rounded=1;whiteSpace=wrap;html=1;" vertex="1" parent="1">
          <mxGeometry x="43" y="113" width="120" height="60" as="geometry" />
        </mxCell>
        <mxCell id="wH24ThZLNfN2DSpacKjt-15" style="edgeStyle=none;curved=1;rounded=0;orthogonalLoop=1;jettySize=auto;html=1;exitX=0.5;exitY=1;exitDx=0;exitDy=0;entryX=0.5;entryY=0;entryDx=0;entryDy=0;fontSize=12;startSize=8;endSize=8;" edge="1" parent="1" source="wH24ThZLNfN2DSpacKjt-9" target="wH24ThZLNfN2DSpacKjt-11">
          <mxGeometry relative="1" as="geometry" />
        </mxCell>
        <mxCell id="wH24ThZLNfN2DSpacKjt-9" value="&lt;div&gt;&lt;font face=&quot;Times New Roman&quot;&gt;Sub-Persoalan 2&lt;/font&gt;&lt;/div&gt;" style="rounded=1;whiteSpace=wrap;html=1;" vertex="1" parent="1">
          <mxGeometry x="283" y="113" width="120" height="60" as="geometry" />
        </mxCell>
        <mxCell id="wH24ThZLNfN2DSpacKjt-17" style="edgeStyle=none;curved=1;rounded=0;orthogonalLoop=1;jettySize=auto;html=1;exitX=0.5;exitY=1;exitDx=0;exitDy=0;entryX=0.5;entryY=0;entryDx=0;entryDy=0;fontSize=12;startSize=8;endSize=8;" edge="1" parent="1" source="wH24ThZLNfN2DSpacKjt-10" target="wH24ThZLNfN2DSpacKjt-12">
          <mxGeometry relative="1" as="geometry" />
        </mxCell>
        <mxCell id="wH24ThZLNfN2DSpacKjt-10" value="&lt;div&gt;&lt;font face=&quot;Times New Roman&quot;&gt;Solusi&lt;/font&gt;&lt;/div&gt;&lt;div&gt;&lt;font face=&quot;Times New Roman&quot;&gt;Sub-Persoalan 1&lt;/font&gt;&lt;/div&gt;" style="rounded=1;whiteSpace=wrap;html=1;" vertex="1" parent="1">
          <mxGeometry x="43" y="228" width="120" height="60" as="geometry" />
        </mxCell>
        <mxCell id="wH24ThZLNfN2DSpacKjt-18" style="edgeStyle=none;curved=1;rounded=0;orthogonalLoop=1;jettySize=auto;html=1;exitX=0.5;exitY=1;exitDx=0;exitDy=0;entryX=0.5;entryY=0;entryDx=0;entryDy=0;fontSize=12;startSize=8;endSize=8;" edge="1" parent="1" source="wH24ThZLNfN2DSpacKjt-11" target="wH24ThZLNfN2DSpacKjt-12">
          <mxGeometry relative="1" as="geometry" />
        </mxCell>
        <mxCell id="wH24ThZLNfN2DSpacKjt-11" value="&lt;div&gt;&lt;font face=&quot;Times New Roman&quot;&gt;Solusi&lt;/font&gt;&lt;/div&gt;&lt;div&gt;&lt;font face=&quot;Times New Roman&quot;&gt;Sub-Persoalan 2&lt;/font&gt;&lt;/div&gt;" style="rounded=1;whiteSpace=wrap;html=1;" vertex="1" parent="1">
          <mxGeometry x="283" y="228" width="120" height="60" as="geometry" />
        </mxCell>
        <mxCell id="wH24ThZLNfN2DSpacKjt-12" value="&lt;div&gt;&lt;font face=&quot;Times New Roman&quot;&gt;Solusi&lt;/font&gt;&lt;/div&gt;&lt;div&gt;&lt;font face=&quot;Times New Roman&quot;&gt;Persoalan&lt;/font&gt;&lt;/div&gt;" style="rounded=1;whiteSpace=wrap;html=1;" vertex="1" parent="1">
          <mxGeometry x="163" y="343" width="120" height="60" as="geometry" />
        </mxCell>
      </root>
    </mxGraphModel>
  </diagram>
</mxfile>
